<svg xmlns="http://www.w3.org/2000/svg" viewBox="0 0 1024 1024">
  <!-- HttpReq app icon master: the "API" mark on the brand violet-to-indigo tile.
       Platform variants are generated by scripts/generate-icons.mjs. -->
  <defs>
    <linearGradient id="tile" x1="0" y1="0" x2="1" y2="1">
      <stop offset="0" stop-color="#845ef7"/>
      <stop offset="1" stop-color="#4c6ef5"/>
    </linearGradient>
    <linearGradient id="sheen" x1="0" y1="0" x2="0" y2="1">
      <stop offset="0" stop-color="#ffffff" stop-opacity="0.18"/>
      <stop offset="0.55" stop-color="#ffffff" stop-opacity="0"/>
    </linearGradient>
  </defs>
  <rect x="32" y="32" width="960" height="960" rx="216" fill="url(#tile)"/>
  <rect x="32" y="32" width="960" height="960" rx="216" fill="url(#sheen)"/>
  <g transform="translate(512 512) scale(31) translate(-12 -12)" fill="none" stroke="#ffffff"
     stroke-width="2.3" stroke-linecap="round" stroke-linejoin="round">
    <path d="M4 13h5"/>
    <path d="M12 16v-8h3a2 2 0 0 1 2 2v1a2 2 0 0 1 -2 2h-3"/>
    <path d="M20 8v8"/>
    <path d="M9 16v-5.5a2.5 2.5 0 0 0 -5 0v5.5"/>
  </g>
</svg>
